<svg width="188" height="18" viewBox="0 0 188 18" fill="none" xmlns="http://www.w3.org/2000/svg">
<path d="M0.578125 17V1H10.9844V3.42969H3.47656V7.77344H10.4453V10.2031H3.47656V14.5703H11.0469V17H0.578125ZM19.3633 17H13.9414V1H19.4727C21.0612 1 22.4258 1.32031 23.5664 1.96094C24.7122 2.59635 25.5924 3.51042 26.207 4.70312C26.8216 5.89583 27.1289 7.32292 27.1289 8.98437C27.1289 10.651 26.819 12.0833 26.1992 13.2812C25.5846 14.4792 24.6966 15.3984 23.5352 16.0391C22.3789 16.6797 20.9883 17 19.3633 17ZM16.8398 14.4922H19.2227C20.3372 14.4922 21.2669 14.2891 22.0117 13.8828C22.7565 13.4714 23.3164 12.8594 23.6914 12.0469C24.0664 11.2292 24.2539 10.2083 24.2539 8.98437C24.2539 7.76042 24.0664 6.74479 23.6914 5.9375C23.3164 5.125 22.7617 4.51823 22.0273 4.11719C21.2982 3.71094 20.3919 3.50781 19.3086 3.50781H16.8398V14.4922ZM29.8828 17V1H40.2891V3.42969H32.7813V7.77344H39.75V10.2031H32.7813V14.5703H40.3516V17H29.8828ZM45.3867 1L49.5508 13.5937H49.7148L53.8711 1H57.0586L51.418 17H47.8398L42.207 1H45.3867Z" fill="black"/>
<path d="M65.1934 17H63.6621L69.4824 1H71.0449L76.8652 17H75.334L70.3184 2.89844H70.209L65.1934 17ZM66.2949 10.8672H74.2324V12.1797H66.2949V10.8672ZM79.3184 17V5H80.6699V6.84375H80.7715C81.0111 6.23958 81.4277 5.7526 82.0215 5.38281C82.6204 5.00781 83.2975 4.82031 84.0527 4.82031C84.1673 4.82031 84.2949 4.82292 84.4355 4.82812C84.5762 4.83333 84.6934 4.83854 84.7871 4.84375V6.25781C84.7246 6.2474 84.6152 6.23177 84.459 6.21094C84.3027 6.1901 84.1335 6.17969 83.9512 6.17969C83.3262 6.17969 82.7689 6.3125 82.2793 6.57812C81.7949 6.83854 81.4121 7.20052 81.1309 7.66406C80.8496 8.1276 80.709 8.65625 80.709 9.25V17H79.3184ZM91.4824 17.25C90.4095 17.25 89.4746 16.9818 88.6777 16.4453C87.8861 15.9089 87.2715 15.1745 86.834 14.2422C86.3965 13.3099 86.1777 12.2474 86.1777 11.0547C86.1777 9.85156 86.3991 8.78125 86.8418 7.84375C87.2897 6.90625 87.9095 6.17187 88.7012 5.64062C89.4928 5.10417 90.4121 4.83594 91.459 4.83594C92.2611 4.83594 92.9876 4.99219 93.6387 5.30469C94.2897 5.61198 94.8262 6.04687 95.248 6.60937C95.6751 7.16667 95.9434 7.81771 96.0527 8.5625H94.6465C94.5007 7.88542 94.1491 7.30729 93.5918 6.82812C93.0397 6.34375 92.3366 6.10156 91.4824 6.10156C90.7168 6.10156 90.0397 6.3099 89.4512 6.72656C88.8626 7.13802 88.4017 7.71354 88.0684 8.45312C87.7402 9.1875 87.5762 10.0391 87.5762 11.0078C87.5762 11.9818 87.7376 12.8437 88.0605 13.5937C88.3835 14.3385 88.8366 14.9219 89.4199 15.3437C90.0085 15.7656 90.696 15.9766 91.4824 15.9766C92.0137 15.9766 92.498 15.8776 92.9355 15.6797C93.3783 15.4766 93.748 15.1901 94.0449 14.8203C94.347 14.4505 94.5501 14.0104 94.6543 13.5H96.0605C95.9564 14.224 95.6986 14.8698 95.2871 15.4375C94.8809 16 94.3522 16.4427 93.7012 16.7656C93.0553 17.0885 92.3158 17.25 91.4824 17.25ZM100.432 9.5V17H99.041V1H100.432V6.88281H100.557C100.838 6.26302 101.273 5.76823 101.861 5.39844C102.455 5.02865 103.205 4.84375 104.111 4.84375C104.924 4.84375 105.637 5.01042 106.252 5.34375C106.867 5.67708 107.346 6.16927 107.689 6.82031C108.033 7.47135 108.205 8.27344 108.205 9.22656V17H106.807V9.3125C106.807 8.32292 106.531 7.54427 105.979 6.97656C105.432 6.40365 104.692 6.11719 103.76 6.11719C103.119 6.11719 102.549 6.2526 102.049 6.52344C101.549 6.79427 101.153 7.1849 100.861 7.69531C100.575 8.20052 100.432 8.80208 100.432 9.5ZM111.883 17V5H113.281V17H111.883ZM112.594 2.9375C112.307 2.9375 112.063 2.84115 111.859 2.64844C111.656 2.45052 111.555 2.21354 111.555 1.9375C111.555 1.66146 111.656 1.42708 111.859 1.23438C112.063 1.03646 112.307 0.937499 112.594 0.937499C112.88 0.937499 113.125 1.03646 113.328 1.23438C113.531 1.42708 113.633 1.66146 113.633 1.9375C113.633 2.21354 113.531 2.45052 113.328 2.64844C113.125 2.84115 112.88 2.9375 112.594 2.9375ZM121.686 5V6.21094H115.959V5H121.686ZM117.748 2.125H119.146V13.8672C119.146 14.3672 119.232 14.7604 119.404 15.0469C119.576 15.3281 119.8 15.5286 120.076 15.6484C120.352 15.763 120.646 15.8203 120.959 15.8203C121.141 15.8203 121.298 15.8099 121.428 15.7891C121.558 15.763 121.673 15.737 121.771 15.7109L122.068 16.9687C121.933 17.0208 121.766 17.0677 121.568 17.1094C121.37 17.1563 121.126 17.1797 120.834 17.1797C120.324 17.1797 119.831 17.0677 119.357 16.8437C118.889 16.6198 118.503 16.2865 118.201 15.8437C117.899 15.401 117.748 14.8516 117.748 14.1953V2.125ZM129.566 17.25C128.447 17.25 127.478 16.9896 126.66 16.4687C125.842 15.9427 125.21 15.2161 124.762 14.2891C124.319 13.3568 124.098 12.2839 124.098 11.0703C124.098 9.86198 124.319 8.78906 124.762 7.85156C125.21 6.90885 125.827 6.17187 126.613 5.64062C127.405 5.10417 128.319 4.83594 129.355 4.83594C130.007 4.83594 130.634 4.95573 131.238 5.19531C131.842 5.42969 132.384 5.79167 132.863 6.28125C133.348 6.76562 133.73 7.3776 134.012 8.11719C134.293 8.85156 134.434 9.72135 134.434 10.7266V11.4141H125.059V10.1875H133.012C133.012 9.41667 132.855 8.72396 132.543 8.10937C132.236 7.48958 131.806 7 131.254 6.64062C130.707 6.28125 130.074 6.10156 129.355 6.10156C128.595 6.10156 127.926 6.30469 127.348 6.71094C126.77 7.11719 126.316 7.65365 125.988 8.32031C125.665 8.98698 125.501 9.71615 125.496 10.5078V11.2422C125.496 12.1953 125.66 13.0286 125.988 13.7422C126.322 14.4505 126.793 15 127.402 15.3906C128.012 15.7812 128.733 15.9766 129.566 15.9766C130.134 15.9766 130.632 15.888 131.059 15.7109C131.491 15.5339 131.853 15.2969 132.145 15C132.441 14.6979 132.665 14.3672 132.816 14.0078L134.137 14.4375C133.954 14.9427 133.655 15.4089 133.238 15.8359C132.827 16.263 132.311 16.6068 131.691 16.8672C131.077 17.1224 130.368 17.25 129.566 17.25ZM142.186 17.25C141.113 17.25 140.178 16.9818 139.381 16.4453C138.589 15.9089 137.975 15.1745 137.537 14.2422C137.1 13.3099 136.881 12.2474 136.881 11.0547C136.881 9.85156 137.102 8.78125 137.545 7.84375C137.993 6.90625 138.613 6.17187 139.404 5.64062C140.196 5.10417 141.115 4.83594 142.162 4.83594C142.964 4.83594 143.691 4.99219 144.342 5.30469C144.993 5.61198 145.529 6.04687 145.951 6.60937C146.378 7.16667 146.646 7.81771 146.756 8.5625H145.35C145.204 7.88542 144.852 7.30729 144.295 6.82812C143.743 6.34375 143.04 6.10156 142.186 6.10156C141.42 6.10156 140.743 6.3099 140.154 6.72656C139.566 7.13802 139.105 7.71354 138.771 8.45312C138.443 9.1875 138.279 10.0391 138.279 11.0078C138.279 11.9818 138.441 12.8437 138.764 13.5937C139.087 14.3385 139.54 14.9219 140.123 15.3437C140.712 15.7656 141.399 15.9766 142.186 15.9766C142.717 15.9766 143.201 15.8776 143.639 15.6797C144.081 15.4766 144.451 15.1901 144.748 14.8203C145.05 14.4505 145.253 14.0104 145.357 13.5H146.764C146.66 14.224 146.402 14.8698 145.99 15.4375C145.584 16 145.055 16.4427 144.404 16.7656C143.758 17.0885 143.019 17.25 142.186 17.25ZM154.471 5V6.21094H148.744V5H154.471ZM150.533 2.125H151.932V13.8672C151.932 14.3672 152.018 14.7604 152.189 15.0469C152.361 15.3281 152.585 15.5286 152.861 15.6484C153.137 15.763 153.432 15.8203 153.744 15.8203C153.926 15.8203 154.083 15.8099 154.213 15.7891C154.343 15.763 154.458 15.737 154.557 15.7109L154.854 16.9687C154.718 17.0208 154.551 17.0677 154.354 17.1094C154.156 17.1563 153.911 17.1797 153.619 17.1797C153.109 17.1797 152.617 17.0677 152.143 16.8437C151.674 16.6198 151.288 16.2865 150.986 15.8437C150.684 15.401 150.533 14.8516 150.533 14.1953V2.125ZM165.254 12.4141V5H166.645V17H165.254V15.0078H165.145C164.863 15.6224 164.418 16.1354 163.809 16.5469C163.199 16.9531 162.454 17.1563 161.574 17.1563C160.809 17.1563 160.129 16.9896 159.535 16.6562C158.941 16.3177 158.475 15.8229 158.137 15.1719C157.798 14.5208 157.629 13.7214 157.629 12.7734V5H159.02V12.6875C159.02 13.625 159.296 14.3802 159.848 14.9531C160.4 15.5208 161.108 15.8047 161.973 15.8047C162.514 15.8047 163.035 15.6745 163.535 15.4141C164.035 15.1536 164.447 14.7734 164.77 14.2734C165.092 13.7682 165.254 13.1484 165.254 12.4141ZM170.326 17V5H171.678V6.84375H171.779C172.019 6.23958 172.436 5.7526 173.029 5.38281C173.628 5.00781 174.305 4.82031 175.061 4.82031C175.175 4.82031 175.303 4.82292 175.443 4.82812C175.584 4.83333 175.701 4.83854 175.795 4.84375V6.25781C175.732 6.2474 175.623 6.23177 175.467 6.21094C175.311 6.1901 175.141 6.17969 174.959 6.17969C174.334 6.17969 173.777 6.3125 173.287 6.57812C172.803 6.83854 172.42 7.20052 172.139 7.66406C171.857 8.1276 171.717 8.65625 171.717 9.25V17H170.326ZM182.654 17.25C181.535 17.25 180.566 16.9896 179.748 16.4687C178.93 15.9427 178.298 15.2161 177.85 14.2891C177.407 13.3568 177.186 12.2839 177.186 11.0703C177.186 9.86198 177.407 8.78906 177.85 7.85156C178.298 6.90885 178.915 6.17187 179.701 5.64062C180.493 5.10417 181.407 4.83594 182.443 4.83594C183.094 4.83594 183.722 4.95573 184.326 5.19531C184.93 5.42969 185.472 5.79167 185.951 6.28125C186.436 6.76562 186.818 7.3776 187.1 8.11719C187.381 8.85156 187.521 9.72135 187.521 10.7266V11.4141H178.146V10.1875H186.1C186.1 9.41667 185.943 8.72396 185.631 8.10937C185.324 7.48958 184.894 7 184.342 6.64062C183.795 6.28125 183.162 6.10156 182.443 6.10156C181.683 6.10156 181.014 6.30469 180.436 6.71094C179.857 7.11719 179.404 7.65365 179.076 8.32031C178.753 8.98698 178.589 9.71615 178.584 10.5078V11.2422C178.584 12.1953 178.748 13.0286 179.076 13.7422C179.41 14.4505 179.881 15 180.49 15.3906C181.1 15.7812 181.821 15.9766 182.654 15.9766C183.222 15.9766 183.719 15.888 184.146 15.7109C184.579 15.5339 184.941 15.2969 185.232 15C185.529 14.6979 185.753 14.3672 185.904 14.0078L187.225 14.4375C187.042 14.9427 186.743 15.4089 186.326 15.8359C185.915 16.263 185.399 16.6068 184.779 16.8672C184.165 17.1224 183.456 17.25 182.654 17.25Z" fill="#FF6D00"/>
</svg>
